<svg width="140" height="127" viewBox="0 0 140 127" fill="none" xmlns="http://www.w3.org/2000/svg">
<g clip-path="url(#clip0_6029_4727)">
<path d="M83.9733 93.1294C84.2155 93.3698 84.4696 93.6013 84.7236 93.8211C85.4975 94.4953 86.3187 95.0815 87.1842 95.5798H102.627C102.94 95.401 103.25 95.2105 103.555 95.0082L104.751 93.8211L106.523 92.0625H82.9985C83.3057 92.4318 83.6307 92.7865 83.9733 93.1294Z" fill="#383535"/>
<path d="M61.9728 92.0617H9.15708C6.0614 92.0617 3.54468 89.5645 3.54468 86.4927V31.9515H115.214V54.7112C115.816 55.1509 116.407 55.6111 116.986 56.0947C117.592 56.5988 118.183 57.1264 118.759 57.6745V30.1929V17.0002C118.759 11.991 114.65 7.91387 109.601 7.91387H101.006V6.61834C101.006 2.96917 98.0133 0 94.3357 0C90.6581 0 87.6658 2.96917 87.6658 6.61834V7.91387H77.7023V6.61834C77.7023 2.96917 74.71 0 71.0294 0C67.3518 0 64.3595 2.96917 64.3595 6.61834V7.91387H54.396V6.61834C54.399 2.96917 51.4067 0 47.7261 0C44.0485 0 41.0562 2.96917 41.0562 6.61834V7.91387H31.0927V6.61834C31.0927 2.96917 28.1004 0 24.4228 0C20.7452 0 17.7529 2.96917 17.7529 6.61834V7.91387H9.15708C4.10887 7.91387 0 11.991 0 17.0002V30.1929V86.4927C0 91.5019 4.10887 95.579 9.15708 95.579H63.2459C62.9978 94.9987 62.7674 94.4125 62.5547 93.8204C62.345 93.24 62.15 92.6538 61.9728 92.0617ZM9.15708 11.4311H17.7529V15.9508C17.7529 19.6 20.7452 22.5692 24.4228 22.5692C28.1004 22.5692 31.0927 19.6 31.0927 15.9508V11.4311H41.0562V15.9508C41.0562 19.6 44.0485 22.5692 47.7261 22.5692C51.4037 22.5692 54.396 19.6 54.396 15.9508V11.4311H64.3595V15.9508C64.3595 19.6 67.3518 22.5692 71.0294 22.5692C74.707 22.5692 77.6993 19.6 77.6993 15.9508V11.4311H87.6628V15.9508C87.6628 19.6 90.6551 22.5692 94.3327 22.5692C98.0103 22.5692 101.003 19.6 101.003 15.9508V11.4311H109.598C112.694 11.4311 115.211 13.9284 115.211 17.0002V28.4342H3.54468V17.0002C3.54468 13.9313 6.0614 11.4311 9.15708 11.4311ZM21.2976 7.91387V6.61834C21.2976 4.90953 22.7007 3.51728 24.4228 3.51728C26.145 3.51728 27.5481 4.90953 27.5481 6.61834V7.91387V9.67251V11.4311V15.9508C27.5481 17.6597 26.145 19.0519 24.4228 19.0519C22.7007 19.0519 21.2976 17.6597 21.2976 15.9508V11.4311V9.67251V7.91387ZM44.6009 7.91387V6.61834C44.6009 4.90953 46.004 3.51728 47.7261 3.51728C49.4483 3.51728 50.8514 4.90953 50.8514 6.61834V7.91387V9.67251V11.4311V15.9508C50.8514 17.6597 49.4483 19.0519 47.7261 19.0519C46.0011 19.0519 44.6009 17.6597 44.6009 15.9508V11.4311V9.67251V7.91387ZM67.9042 7.91387V6.61834C67.9042 4.90953 69.3073 3.51728 71.0294 3.51728C72.7516 3.51728 74.1547 4.90953 74.1547 6.61834V7.91387V9.67251V11.4311V15.9508C74.1547 17.6597 72.7516 19.0519 71.0294 19.0519C69.3044 19.0519 67.9042 17.6597 67.9042 15.9508V11.4311V9.67251V7.91387ZM91.2075 7.91387V6.61834C91.2075 4.90953 92.6106 3.51728 94.3327 3.51728C96.0549 3.51728 97.458 4.90953 97.458 6.61834V7.91387V9.67251V11.4311V15.9508C97.458 17.6597 96.0549 19.0519 94.3327 19.0519C92.6106 19.0519 91.2075 17.6597 91.2075 15.9508V11.4311V9.67251V7.91387Z" fill="#383535"/>
<path d="M66.8555 37.6727C66.8555 36.7025 66.0609 35.9141 65.0831 35.9141H53.6752C52.6974 35.9141 51.9028 36.7025 51.9028 37.6727V48.9925C51.9028 49.9626 52.6974 50.7511 53.6752 50.7511H65.0831C66.0609 50.7511 66.8555 49.9626 66.8555 48.9925V37.6727ZM63.3108 47.2309H55.4475V39.4284H63.3108V47.2309Z" fill="#383535"/>
<path d="M87.3674 48.9632V37.6727C87.3674 36.7025 86.5728 35.9141 85.5951 35.9141H74.1871C73.2094 35.9141 72.4148 36.7025 72.4148 37.6727V48.9925C72.4148 49.9626 73.2094 50.7511 74.1871 50.7511H81.6841C83.5185 49.992 85.4179 49.394 87.3674 48.9632ZM75.9624 39.4313H83.8257V47.2338H75.9624V39.4313Z" fill="#383535"/>
<path d="M94.702 35.9141C93.7243 35.9141 92.9297 36.7025 92.9297 37.6727V48.2011C93.5884 48.163 94.2501 48.1425 94.9147 48.1425C99.1801 48.1425 103.327 48.9104 107.197 50.3759C107.611 50.0535 107.879 49.5552 107.879 48.9925V37.6727C107.879 36.7025 107.085 35.9141 106.107 35.9141H94.702ZM104.338 47.2309H96.4744V39.4284H104.338V47.2309Z" fill="#383535"/>
<path d="M25.8289 56.5594C25.8289 55.5892 25.0343 54.8008 24.0565 54.8008H12.6486C11.6708 54.8008 10.8762 55.5892 10.8762 56.5594V67.8792C10.8762 68.8494 11.6708 69.6378 12.6486 69.6378H24.0565C25.0343 69.6378 25.8289 68.8494 25.8289 67.8792V56.5594ZM22.2842 66.1205H14.4209V58.3181H22.2842V66.1205Z" fill="#383535"/>
<path d="M46.3408 56.5594C46.3408 55.5892 45.5462 54.8008 44.5685 54.8008H33.1605C32.1828 54.8008 31.3882 55.5892 31.3882 56.5594V67.8792C31.3882 68.8494 32.1828 69.6378 33.1605 69.6378H44.5685C45.5462 69.6378 46.3408 68.8494 46.3408 67.8792V56.5594ZM42.7961 66.1205H34.9329V58.3181H42.7961V66.1205Z" fill="#383535"/>
<path d="M66.8557 62.5359V56.5594C66.8557 55.5892 66.0611 54.8008 65.0834 54.8008H53.6754C52.6977 54.8008 51.9031 55.5892 51.9031 56.5594V67.8792C51.9031 68.8494 52.6977 69.6378 53.6754 69.6378H62.9684C63.9609 67.1581 65.2547 64.7723 66.8557 62.5359ZM55.4478 58.3181H63.311V66.1205H55.4478V58.3181Z" fill="#383535"/>
<path d="M94.702 69.6372H103.7C100.498 67.4448 96.6427 66.583 92.9297 67.0549V67.8786C92.9297 68.8487 93.7243 69.6372 94.702 69.6372Z" fill="#383535"/>
<path d="M24.0565 73.3945H12.6486C11.6708 73.3945 10.8762 74.183 10.8762 75.1532V86.4729C10.8762 87.4431 11.6708 88.2316 12.6486 88.2316H24.0565C25.0343 88.2316 25.8289 87.4431 25.8289 86.4729V75.1532C25.8289 74.183 25.0343 73.3945 24.0565 73.3945ZM22.2842 84.7143H14.4209V76.9118H22.2842V84.7143Z" fill="#383535"/>
<path d="M44.5685 73.3945H33.1605C32.1828 73.3945 31.3882 74.183 31.3882 75.1532V86.4729C31.3882 87.4431 32.1828 88.2316 33.1605 88.2316H44.5685C45.5462 88.2316 46.3408 87.4431 46.3408 86.4729V75.1532C46.3408 74.183 45.5492 73.3945 44.5685 73.3945ZM42.7961 84.7143H34.9329V76.9118H42.7961V84.7143Z" fill="#383535"/>
<path d="M60.9627 76.9118C61.1517 75.7306 61.3999 74.5552 61.713 73.3945H53.6754C52.6977 73.3945 51.9031 74.183 51.9031 75.1532V86.4729C51.9031 87.4431 52.6977 88.2316 53.6754 88.2316H61.0631C60.8563 87.065 60.7086 85.8926 60.6259 84.7143H55.4478V76.9118H60.9627Z" fill="#383535"/>
<path d="M87.3673 86.4729V75.1532C87.3673 74.183 86.5727 73.3945 85.595 73.3945H82.2925C81.5097 74.4878 80.8776 75.6661 80.4109 76.9118H83.8226V84.7143H79.637C79.8319 85.9307 80.1687 87.109 80.6472 88.2316H85.595C86.5757 88.2316 87.3673 87.4431 87.3673 86.4729Z" fill="#383535"/>
<path d="M106.11 73.3945H94.702C93.7243 73.3945 92.9297 74.183 92.9297 75.1532V86.4729C92.9297 87.4431 93.7243 88.2316 94.702 88.2316H106.11C107.088 88.2316 107.882 87.4431 107.882 86.4729V75.1532C107.882 74.183 107.088 73.3945 106.11 73.3945ZM104.338 84.7143H96.4744V76.9118H104.338V84.7143Z" fill="#383535"/>
<path d="M138.05 114.042L121.577 97.6954C124.309 93.0643 125.765 87.7796 125.765 82.2722C125.765 75.0999 123.296 68.3057 118.759 62.8422C118.2 62.168 117.607 61.5173 116.986 60.8871C116.901 60.7992 116.818 60.7142 116.729 60.6263C116.239 60.1368 115.731 59.6707 115.214 59.2194C109.593 54.3304 102.462 51.6602 94.9176 51.6602C90.1087 51.6602 85.4652 52.7476 81.2765 54.7993C78.2872 56.2649 75.5283 58.2199 73.1031 60.6263C72.8698 60.8578 72.6423 61.0923 72.4178 61.3297C69.1154 64.8177 66.7256 68.9417 65.3698 73.4174C64.5102 76.2518 64.0671 79.2268 64.0671 82.2692C64.0671 84.2917 64.2651 86.2848 64.6491 88.2281C64.906 89.5324 65.2487 90.8104 65.6741 92.0619C65.8749 92.654 66.0935 93.2402 66.3328 93.8206C66.578 94.4156 66.8408 95.0018 67.1215 95.5792C68.6102 98.6304 70.6159 101.447 73.1061 103.915C78.9341 109.698 86.6792 112.881 94.9206 112.881C100.471 112.881 105.797 111.433 110.464 108.725L126.938 125.072C128.232 126.355 129.933 127 131.635 127C133.336 127 135.037 126.358 136.331 125.072L138.053 123.363C139.309 122.117 140 120.461 140 118.702C139.997 116.941 139.306 115.285 138.05 114.042ZM135.546 120.877L133.823 122.586C132.615 123.785 130.648 123.785 129.44 122.586L113.468 106.735C114.407 106.028 115.314 105.269 116.18 104.452C116.366 104.276 116.549 104.097 116.732 103.915C116.915 103.733 117.096 103.552 117.273 103.367C118.097 102.508 118.862 101.608 119.574 100.676L135.549 116.527C136.133 117.108 136.455 117.882 136.455 118.702C136.452 119.523 136.13 120.297 135.546 120.877ZM75.608 101.43C73.8298 99.6651 72.3321 97.6954 71.127 95.5792C70.7991 95.0018 70.486 94.4185 70.1994 93.8206C69.9247 93.2431 69.6795 92.6569 69.4462 92.0619C68.244 88.9814 67.6089 85.6751 67.6089 82.2722C67.6089 76.7061 69.2955 71.4009 72.4149 66.9193C73.3542 65.571 74.4146 64.296 75.6051 63.1147C75.7203 63.0004 75.8414 62.892 75.9595 62.7806C77.8234 60.9927 79.8971 59.4949 82.1302 58.3195C83.7874 57.4461 85.5302 56.7514 87.335 56.2385C89.3466 55.664 91.4321 55.3152 93.5648 55.2126C94.0138 55.1921 94.4628 55.1804 94.9147 55.1804C99.5169 55.1804 103.942 56.3059 107.879 58.4192C110.183 59.6561 112.319 61.2271 114.221 63.1177C114.561 63.4548 114.892 63.8006 115.211 64.1553C115.843 64.8499 116.434 65.5739 116.983 66.3213C117.633 67.2036 118.221 68.1181 118.756 69.0619C121.012 73.0569 122.218 77.5737 122.218 82.278C122.218 86.8329 121.089 91.2178 118.968 95.1161C118.679 95.6495 118.366 96.1683 118.041 96.6813C117.722 97.1854 117.385 97.6808 117.031 98.1644C116.363 99.076 115.63 99.9523 114.842 100.788C114.638 101.005 114.434 101.224 114.221 101.435C114.009 101.646 113.787 101.849 113.569 102.051C112.724 102.837 111.841 103.563 110.925 104.223C110.434 104.575 109.932 104.906 109.424 105.222C108.904 105.545 108.379 105.853 107.841 106.14C97.5082 111.641 84.322 110.076 75.608 101.43Z" fill="#383535"/>
<path d="M113.211 95.3774C113.403 95.1165 113.589 94.8498 113.769 94.5801C114.059 94.1434 114.331 93.6979 114.588 93.2436C114.892 92.7072 115.178 92.1591 115.435 91.5993C115.692 91.0424 115.932 90.4737 116.141 89.8963C116.481 88.9642 116.753 88.0087 116.965 87.0356C117.302 85.488 117.479 83.8935 117.479 82.2697C117.479 80.681 117.308 79.1217 116.986 77.6034C116.608 75.8213 116.011 74.1037 115.214 72.477C114.13 70.267 112.673 68.227 110.872 66.439C109.935 65.5099 108.931 64.6833 107.882 63.9535C106.751 63.165 105.566 62.4879 104.338 61.9281C101.839 60.7909 99.1712 60.1343 96.4743 59.9526C95.2927 59.8734 94.1082 59.8793 92.9296 59.9819C91.042 60.146 89.1722 60.5417 87.3674 61.1748C86.1504 61.6028 84.9659 62.1391 83.8227 62.7781C82.2128 63.6779 80.6945 64.7918 79.3033 66.1166C79.191 66.225 79.0729 66.3276 78.9636 66.439C77.9651 67.4297 77.0731 68.5025 76.2903 69.6339C75.4691 70.821 74.769 72.0784 74.1989 73.3915C73.2035 75.6807 72.5979 78.131 72.4207 80.6664C72.3823 81.1969 72.3586 81.7304 72.3586 82.2668C72.3586 82.8031 72.3852 83.3366 72.4207 83.8671C72.5152 85.2095 72.7249 86.5285 73.0528 87.8123C73.428 89.2808 73.9567 90.6994 74.6213 92.0594C74.9167 92.6574 75.2328 93.2465 75.5813 93.8181C75.9476 94.4189 76.3435 95.0081 76.7688 95.5767C77.4305 96.4619 78.1631 97.306 78.9636 98.1003C83.226 102.33 88.8916 104.657 94.9176 104.657C98.2171 104.657 101.407 103.954 104.32 102.629C104.884 102.371 105.436 102.09 105.977 101.788C106.715 101.374 107.433 100.92 108.124 100.422C109.09 99.7271 110.012 98.9533 110.872 98.1003C111.731 97.2503 112.508 96.3358 113.211 95.3774ZM94.9176 101.143C89.8369 101.143 85.0604 99.179 81.4685 95.6148C81.4566 95.6031 81.4448 95.5914 81.436 95.5796C80.8777 95.0227 80.3607 94.4336 79.8822 93.821C79.4391 93.2553 79.0285 92.6691 78.6564 92.0624C77.9149 90.8548 77.3182 89.568 76.8692 88.2285C76.4882 87.0913 76.2194 85.9159 76.0628 84.7113C76.0215 84.3947 75.989 84.0752 75.9654 83.7528C75.927 83.2604 75.9033 82.768 75.9033 82.2697C75.9033 81.7714 75.927 81.276 75.9654 80.7866C76.0687 79.4617 76.308 78.1633 76.6802 76.9117C77.0435 75.6924 77.525 74.5141 78.1276 73.3944C78.8513 72.052 79.7434 70.7887 80.795 69.6368C81.0136 69.3965 81.241 69.159 81.4714 68.9275C83.2201 67.1923 85.2288 65.8733 87.3703 64.9559C89.1545 64.1938 91.0302 63.7102 92.9325 63.5138C93.5942 63.4464 94.2559 63.4083 94.9176 63.4083C95.4374 63.4083 95.9573 63.4347 96.4772 63.4757C99.2066 63.6955 101.895 64.4986 104.34 65.8821C105.566 66.5738 106.73 67.4121 107.805 68.397C107.994 68.5699 108.184 68.7428 108.367 68.9275C111.959 72.4917 113.938 77.2312 113.938 82.2726C113.938 85.6697 113.037 88.9291 111.35 91.7839C111.084 92.2353 110.798 92.675 110.493 93.1029L109.773 93.8181L107.997 95.5796L105.835 97.7252C102.657 99.944 98.8787 101.143 94.9176 101.143Z" fill="#383535"/>
</g>
<defs>
<clipPath id="clip0_6029_4727">
<rect width="140" height="127" fill="white"/>
</clipPath>
</defs>
</svg>
