<svg width="103" height="133" viewBox="0 0 103 133" fill="none" xmlns="http://www.w3.org/2000/svg">
<path d="M91.1119 4.53412H61.2037C58.8675 1.76754 55.3584 0 51.4389 0C47.5195 0 44.0104 1.76754 41.6742 4.53412H12.2216C5.84963 4.53412 0.666748 9.67344 0.666748 15.9847V122.549C0.666748 128.864 5.84963 134 12.2216 134H91.1119C97.4839 134 102.667 128.864 102.667 122.549V15.9847C102.667 9.67344 97.4839 4.53412 91.1119 4.53412ZM98.7893 122.549C98.7893 126.744 95.3448 130.158 91.1119 130.158H12.2216C7.9887 130.158 4.54421 126.744 4.54421 122.549V15.9847C4.54421 11.79 7.9887 8.3766 12.2216 8.3766H39.4543C39.1474 9.22835 38.9277 10.1217 38.8113 11.0471H24.3872C22.0477 11.0471 20.0832 12.6482 19.5403 14.8031H16.6064C13.7564 14.8031 11.4364 17.1022 11.4364 19.9264V118.604C11.4364 121.429 13.7564 123.728 16.6064 123.728H86.7239C89.5738 123.728 91.8938 121.429 91.8938 118.604V19.9297C91.8938 17.1054 89.5738 14.8063 86.7239 14.8063H83.7899C83.2471 12.6514 81.2825 11.0503 78.9431 11.0503H64.0633C63.947 10.1249 63.7273 9.23155 63.4203 8.3798H91.1054C95.3383 8.3798 98.7828 11.7932 98.7828 15.9879V122.549H98.7893ZM47.9912 4.53412C49.0511 4.08904 50.2175 3.84248 51.4389 3.84248C52.6603 3.84248 53.8268 4.08904 54.8867 4.53412C55.9627 4.98561 56.9256 5.64524 57.7366 6.45536C58.3053 7.02533 58.7932 7.67215 59.1874 8.3766C59.8886 9.63181 60.2893 11.0759 60.2893 12.6097V12.9684C60.2893 13.8297 60.8612 14.5598 61.6528 14.8031C61.8338 14.8608 62.0277 14.8896 62.228 14.8896H78.9496C79.5667 14.8896 80.0708 15.3891 80.0708 16.0007V16.7244V18.5432C80.0708 18.5784 80.0676 18.6104 80.0643 18.6456C80.0094 20.8839 78.1579 22.6866 75.8864 22.6866H27.4471C25.1756 22.6866 23.3273 20.8839 23.2691 18.6456C23.2691 18.6104 23.2627 18.5784 23.2627 18.5432V16.7244V16.0007C23.2627 15.3891 23.7668 14.8896 24.3839 14.8896H40.6499C40.8502 14.8896 41.0441 14.8608 41.225 14.8031C42.0135 14.5598 42.5886 13.8297 42.5886 12.9684V12.6097C42.5886 11.0759 42.9893 9.63181 43.6905 8.3766C44.0847 7.67215 44.5726 7.02533 45.1413 6.45536C45.9523 5.64524 46.9185 4.98882 47.9912 4.53412ZM86.7271 18.6488C87.4412 18.6488 88.0196 19.222 88.0196 19.9297V118.608C88.0196 119.315 87.4412 119.889 86.7271 119.889H16.6096C15.8955 119.889 15.3171 119.315 15.3171 118.608V19.9297C15.3171 19.222 15.8955 18.6488 16.6096 18.6488H19.3917C19.4466 23.0036 23.0397 26.5323 27.4503 26.5323H75.8896C80.3002 26.5323 83.8901 23.0036 83.9483 18.6488H86.7271Z" fill="#383535"/>
<path d="M42.4658 46.2474V48.1686H79.612V46.2474V44.3262H42.4658V46.2474Z" fill="#383535"/>
<path d="M42.4658 67.3958V69.3171H79.612V67.3958V65.4746H42.4658V67.3958Z" fill="#383535"/>
<path d="M42.4658 88.5462V90.4675H79.612V88.5462V86.625H42.4658V88.5462Z" fill="#383535"/>
<path d="M21.783 90.4673H37.1216V75.8242H21.783V90.4673ZM25.6604 79.6667H33.2441V86.6216H25.6604V79.6667Z" fill="#383535"/>
<path d="M42.4658 109.697V111.618H79.612V109.697V107.775H42.4658V109.697Z" fill="#383535"/>
<path d="M21.783 111.618H37.1216V96.9785H21.783V111.618ZM25.6604 100.818H33.2441V107.773H25.6604V100.818Z" fill="#383535"/>
<path d="M36.5462 33.5264H21.7827V48.1662H37.1213V38.3935L42.2008 33.3599L39.4575 30.6445L36.5462 33.5264ZM25.6602 41.1793L28.6135 44.106C28.6975 44.1893 28.788 44.2597 28.8817 44.327H25.6602V41.1793ZM27.8768 37.942L25.6602 40.1387V37.3689H32.6687L29.9836 40.0298L27.8768 37.942ZM33.2439 44.327H31.0886C31.1823 44.2629 31.2728 44.1893 31.3568 44.106L33.2439 42.236V44.327Z" fill="#383535"/>
<path d="M36.6854 54.6764H21.783V69.3162H37.1216V59.678L42.2011 54.6443L39.4577 51.9258L36.6854 54.6764ZM25.6604 62.467L28.6138 65.3937C28.6461 65.4257 28.6816 65.4481 28.7139 65.4737H25.6604V62.467ZM27.877 59.2297L25.6604 61.4263V58.5188H32.8079L29.9838 61.3174L27.877 59.2297ZM33.2441 65.4769H31.2569C31.2892 65.4481 31.328 65.4257 31.3571 65.3969L33.2441 63.5269V65.4769Z" fill="#383535"/>
<path d="M46.3108 16.7261C46.9926 17.5586 47.8747 18.2246 48.8861 18.6473C49.6712 18.9739 50.534 19.1564 51.442 19.1564C52.3467 19.1564 53.2094 18.9739 53.9979 18.6473C55.0092 18.2246 55.8914 17.5586 56.5731 16.7261C57.0384 16.1561 57.4036 15.5061 57.6588 14.8048C57.9076 14.1164 58.0498 13.3831 58.0498 12.6114C58.0498 10.9976 57.4553 9.52143 56.473 8.3783C55.733 7.51374 54.7669 6.84771 53.6715 6.45706C52.9736 6.2073 52.2271 6.06641 51.4452 6.06641C50.6632 6.06641 49.9168 6.2073 49.2189 6.45706C48.1235 6.84771 47.1574 7.51374 46.4174 8.3783C45.4351 9.52143 44.8406 10.9976 44.8406 12.6114C44.8406 13.3831 44.9827 14.1196 45.2316 14.8048C45.4771 15.5061 45.8423 16.1561 46.3108 16.7261ZM54.1691 12.6114C54.1691 13.5144 53.7167 14.3149 53.0285 14.8048C52.5794 15.125 52.0333 15.314 51.4387 15.314C50.8474 15.314 50.2981 15.125 49.849 14.8048C49.1607 14.3149 48.7083 13.5144 48.7083 12.6114C48.7083 11.1193 49.933 9.90888 51.4355 9.90888C52.9445 9.90568 54.1691 11.1193 54.1691 12.6114Z" fill="#383535"/>
</svg>
