<svg width="30" height="30" viewBox="0 0 30 30" fill="none" xmlns="http://www.w3.org/2000/svg">
<path d="M15.0342 0H14.9658C6.70044 0 0 6.70044 0 14.9658V15.0342C0 23.2996 6.70044 30 14.9658 30H15.0342C23.2996 30 30 23.2996 30 15.0342V14.9658C30 6.70044 23.2996 0 15.0342 0Z" fill="white"/>
<path d="M19.6407 6.10352H10.3579C7.79336 6.10352 5.70703 8.18984 5.70703 10.7544V19.2468C5.70703 21.8114 7.79336 23.8977 10.3579 23.8977H19.6407C22.2053 23.8977 24.2916 21.8114 24.2916 19.2468V10.7544C24.2916 8.18984 22.2053 6.10352 19.6407 6.10352ZM7.34772 10.7544C7.34772 9.09479 8.69831 7.7442 10.3579 7.7442H19.6407C21.3003 7.7442 22.6509 9.09479 22.6509 10.7544V19.2468C22.6509 20.9064 21.3003 22.257 19.6407 22.257H10.3579C8.69831 22.257 7.34772 20.9064 7.34772 19.2468V10.7544Z" fill="#383535"/>
<path d="M14.999 19.326C17.3838 19.326 19.3251 17.3858 19.3251 14.9999C19.3251 12.6141 17.3848 10.6738 14.999 10.6738C12.6131 10.6738 10.6729 12.6141 10.6729 14.9999C10.6729 17.3858 12.6131 19.326 14.999 19.326ZM14.999 12.3156C16.4799 12.3156 17.6844 13.5201 17.6844 15.001C17.6844 16.4819 16.4799 17.6864 14.999 17.6864C13.518 17.6864 12.3135 16.4819 12.3135 15.001C12.3135 13.5201 13.518 12.3156 14.999 12.3156Z" fill="#383535"/>
<path d="M19.7252 11.3729C20.3674 11.3729 20.8908 10.8504 20.8908 10.207C20.8908 9.56354 20.3684 9.04102 19.7252 9.04102C19.0819 9.04102 18.5596 9.56354 18.5596 10.207C18.5596 10.8504 19.0819 11.3729 19.7252 11.3729Z" fill="#383535"/>
</svg>
