<svg width="30" height="30" viewBox="0 0 30 30" fill="none" xmlns="http://www.w3.org/2000/svg">
<path d="M29.9979 15.0005C29.9979 22.5765 24.3824 28.8396 17.0873 29.856C16.4052 29.9506 15.7073 30 14.9989 30C14.1813 30 13.3783 29.9348 12.5963 29.8087C5.45474 28.6589 0 22.4661 0 15.0005C0 6.71618 6.71595 0 15 0C23.2841 0 30 6.71618 30 15.0005H29.9979Z" fill="white"/>
<path d="M17.088 12.0449V15.3126H21.1302L20.4901 19.7144H17.088V29.8559C16.4059 29.9505 15.7081 29.9999 14.9997 29.9999C14.182 29.9999 13.379 29.9348 12.5971 29.8086V19.7144H8.86914V15.3126H12.5971V11.3144C12.5971 8.83397 14.6077 6.82227 17.0891 6.82227V6.82437C17.0964 6.82437 17.1027 6.82227 17.1101 6.82227H21.1313V10.6292H18.5037C17.7228 10.6292 17.0891 11.2629 17.0891 12.0439L17.088 12.0449Z" fill="#383535"/>
</svg>
