<svg width="124" height="72" viewBox="0 0 124 72" fill="none" xmlns="http://www.w3.org/2000/svg">
<path fill-rule="evenodd" clip-rule="evenodd" d="M18.7483 10.2416C17.7377 9.12141 14.7851 5.84882 10.2654 2.66152C14.113 0.266421 18.8825 -0.651581 23.6433 0.483767C32.4268 2.5743 38.0778 10.9107 36.9969 19.6446C32.0345 13.187 25.521 11.7161 23.4101 11.2394C23.2269 11.1981 23.0768 11.1642 22.9638 11.1352C22.9638 11.1352 19.6265 14.1423 17.7987 15.7523C19.8129 28.1211 16.8927 34.274 16.6332 34.7902C16.2519 34.7258 15.8692 34.65 15.4878 34.5585C6.05358 32.3121 0.2319 22.8633 2.48402 13.4531C3.3929 9.64949 5.48302 6.43648 8.27273 4.1043C11.9871 6.11332 15.7301 8.72291 17.9808 11.6957C17.9504 11.7229 17.9 11.7601 17.8361 11.8072C17.2852 12.2139 15.7386 13.3554 17.5321 15.0917L22.3804 10.6948C22.0578 10.0184 20.392 8.40547 19.0043 10.5232C18.9413 10.4554 18.8558 10.3607 18.7484 10.2416L18.7483 10.2416ZM35.0264 25.8362C35.4149 25.1141 35.7575 24.3591 36.0471 23.5727C34.4974 20.261 31.8912 17.4984 28.6012 15.7682C31.8683 18.2134 34.1806 21.7924 35.0264 25.8362ZM32.154 29.7347C31.6078 26.9106 30.3449 24.2353 28.444 22.0003C30.0711 24.6771 30.9255 27.7643 30.9054 30.8944C31.3398 30.5283 31.7569 30.1422 32.154 29.7347ZM26.7736 33.4933C27.0775 33.356 27.3786 33.2116 27.6753 33.0586C27.3183 31.1025 26.6173 29.2022 25.5809 27.4605C26.3464 29.3866 26.7478 31.4342 26.7736 33.4933ZM22.5925 34.7764C21.9962 34.8808 21.3912 34.9566 20.7805 34.998C22.0363 31.2173 21.8972 27.1207 20.4407 23.4587C22.4764 26.8776 23.219 30.8999 22.5925 34.7764Z" fill="url(#paint0_linear_6003_528)"/>
<path d="M62.5008 0C52.7997 0 44.9355 7.84836 44.9355 17.5299C44.9355 26.7471 52.0633 34.2964 61.1178 35C61.1777 30.0417 61.3076 19.1793 61.3076 19.1793L60.2286 19.1893L60.2172 17.8376L57.7965 17.8589L56.6419 15.1142L54.3868 15.1341C53.7674 15.1398 53.2622 14.6427 53.2564 14.0259C53.2507 13.4092 53.7488 12.9035 54.3668 12.8992L70.6176 12.7582C71.237 12.7525 71.7423 13.2482 71.7465 13.8664C71.7522 14.4832 71.2556 14.9874 70.6361 14.9931L68.3839 15.013L67.2864 17.7778L64.8515 17.7991L64.8629 19.1509L63.7325 19.1608C63.7325 19.1608 64.0836 30.0203 64.2435 34.9758C73.1253 34.1012 80.0646 26.626 80.0646 17.5328C80.066 7.84836 72.2018 0 62.5008 0ZM54.7451 12.4263C54.8393 11.8936 55.3017 11.4848 55.8626 11.4805L69.0933 11.3652C69.6556 11.3609 70.1252 11.7597 70.2279 12.291L54.7451 12.4263Z" fill="url(#paint1_linear_6003_528)"/>
<path d="M105.436 0C95.735 0 87.8711 7.98551 87.8711 17.8362C87.8711 26.0043 93.2802 32.8855 100.659 35V27.0536C101.341 25.942 103.79 22.9913 103.783 22.1348C103.777 21.4188 103.774 20.1754 103.774 20.1754H107.331C108.06 20.3609 111.617 21.1014 111.708 24.3884C111.758 26.1826 111.754 30.7246 111.74 34.4841C118.325 31.9116 123 25.4304 123 17.8362C123 7.98551 115.136 0 105.436 0ZM110.842 16.3812C109.702 16.3348 107.331 17.4 107.422 19.5304C106.009 19.5768 103.729 19.5304 103.729 19.5304V15.4087H102.406C102.042 16.058 101.448 18.0029 99.8067 18.5116C100.627 17.3072 101.357 14.8986 100.81 13.9739C100.263 14.0667 99.1231 13.9739 99.1231 13.9739V11.8899H100.856L100.764 11.0565H107.422C108.197 11.4725 112.074 13.0942 110.842 16.3812Z" fill="url(#paint2_linear_6003_528)"/>
<path d="M116.172 55.0817V52.6191H123.316V55.0817H116.172ZM116.172 43.2975V40.8348H123.316V43.2975H116.172ZM116.172 48.7317V46.3097H122.911V48.7317H116.172ZM114.31 40.8348H117.103V55.0817H114.31V40.8348Z" fill="white"/>
<path d="M102.547 47.9575C102.547 48.8937 102.756 49.7146 103.174 50.4202C103.606 51.1122 104.166 51.6481 104.854 52.028C105.542 52.3944 106.29 52.5776 107.1 52.5776C107.775 52.5776 108.375 52.4894 108.901 52.313C109.427 52.1366 109.9 51.8991 110.318 51.6006C110.75 51.3021 111.121 50.9765 111.431 50.6237V53.9005C110.851 54.3618 110.217 54.7214 109.529 54.9792C108.854 55.237 107.997 55.3659 106.958 55.3659C105.879 55.3659 104.874 55.1895 103.943 54.8367C103.025 54.4839 102.223 53.9751 101.535 53.3103C100.86 52.6454 100.334 51.8652 99.9561 50.9697C99.5918 50.0606 99.4097 49.0565 99.4097 47.9575C99.4097 46.8584 99.5918 45.8611 99.9561 44.9656C100.334 44.0565 100.86 43.2696 101.535 42.6047C102.223 41.9398 103.025 41.431 103.943 41.0782C104.874 40.7255 105.879 40.5491 106.958 40.5491C107.997 40.5491 108.854 40.678 109.529 40.9358C110.217 41.1936 110.851 41.5531 111.431 42.0145V45.2913C111.121 44.9385 110.75 44.6128 110.318 44.3143C109.9 44.0158 109.427 43.7784 108.901 43.602C108.375 43.4256 107.775 43.3374 107.1 43.3374C106.29 43.3374 105.542 43.5274 104.854 43.9073C104.166 44.2736 103.606 44.8028 103.174 45.4948C102.756 46.1868 102.547 47.0077 102.547 47.9575Z" fill="white"/>
<path d="M94.3481 40.8341H97.1409V55.7934L87.0625 46.2479V55.081H84.2697V40.1217L94.3481 49.6672V40.8341Z" fill="white"/>
<path d="M71.8448 51.8453L72.1888 49.5455H78.9887L79.3327 51.8453H71.8448ZM75.5483 45.4545L73.4233 50.3596L73.4841 51.0109L71.6222 55.0814H68.3639L75.5483 40L82.7327 55.0814H79.4542L77.6328 51.133L77.6732 50.4003L75.5483 45.4545Z" fill="white"/>
<path d="M64.0113 40.8341H66.8041V55.7934L56.7258 46.2479V55.081H53.933V40.1217L64.0113 49.6672V40.8341Z" fill="white"/>
<path d="M39.7762 47.9575C39.7762 48.8666 39.9651 49.6739 40.3429 50.3795C40.7206 51.085 41.2401 51.6413 41.9012 52.0484C42.5623 52.4555 43.3313 52.659 44.2083 52.659C45.0852 52.659 45.8543 52.4555 46.5154 52.0484C47.1764 51.6413 47.6891 51.085 48.0534 50.3795C48.4312 49.6739 48.6201 48.8666 48.6201 47.9575C48.6201 47.0484 48.4379 46.2411 48.0737 45.5355C47.7094 44.8299 47.1967 44.2736 46.5356 43.8666C45.8745 43.4595 45.0987 43.256 44.2083 43.256C43.3313 43.256 42.5623 43.4595 41.9012 43.8666C41.2401 44.2736 40.7206 44.8299 40.3429 45.5355C39.9651 46.2411 39.7762 47.0484 39.7762 47.9575ZM36.7203 47.9575C36.7203 46.872 36.9092 45.8815 37.287 44.986C37.6647 44.0769 38.1909 43.2899 38.8655 42.6251C39.5401 41.9602 40.3294 41.4514 41.2333 41.0986C42.1508 40.7322 43.1424 40.5491 44.2083 40.5491C45.2876 40.5491 46.2792 40.7322 47.1832 41.0986C48.0871 41.4514 48.8764 41.9602 49.551 42.6251C50.2391 43.2899 50.7653 44.0769 51.1295 44.986C51.5073 45.8815 51.6962 46.872 51.6962 47.9575C51.6962 49.0294 51.5073 50.0267 51.1295 50.9493C50.7653 51.8584 50.2458 52.6522 49.5712 53.3306C48.9101 54.0091 48.1209 54.5382 47.2034 54.9181C46.2995 55.2845 45.3011 55.4677 44.2083 55.4677C43.1154 55.4677 42.1103 55.2845 41.1928 54.9181C40.2889 54.5382 39.4996 54.0091 38.825 53.3306C38.1504 52.6522 37.631 51.8584 37.2667 50.9493C36.9025 50.0267 36.7203 49.0294 36.7203 47.9575Z" fill="white"/>
<path d="M26.6091 50.2981C26.9059 50.8272 27.2297 51.2886 27.5805 51.682C27.9448 52.0755 28.3428 52.3808 28.7745 52.5979C29.2063 52.815 29.6717 52.9236 30.1709 52.9236C30.7511 52.9236 31.2233 52.7743 31.5876 52.4758C31.9518 52.1773 32.134 51.7702 32.134 51.2546C32.134 50.8069 32.0193 50.4473 31.7899 50.1759C31.5741 49.9046 31.2435 49.6671 30.7983 49.4636C30.3666 49.2465 29.8336 49.0158 29.1995 48.7716C28.8622 48.6495 28.471 48.4867 28.0257 48.2831C27.594 48.066 27.1825 47.7947 26.7912 47.469C26.4 47.1298 26.0762 46.7228 25.8198 46.2479C25.5635 45.7594 25.4353 45.1759 25.4353 44.4975C25.4353 43.6834 25.6377 42.9846 26.0424 42.4012C26.4607 41.8042 27.0206 41.3496 27.7222 41.0375C28.4372 40.7119 29.2332 40.5491 30.1102 40.5491C31.0142 40.5491 31.7899 40.7051 32.4375 41.0172C33.0986 41.3157 33.6451 41.7024 34.0768 42.1773C34.522 42.6386 34.8661 43.1203 35.1089 43.6223L32.8423 44.8842C32.6534 44.545 32.4241 44.2397 32.1542 43.9683C31.8979 43.6834 31.6011 43.4595 31.2638 43.2967C30.9265 43.1203 30.542 43.0321 30.1102 43.0321C29.5436 43.0321 29.1186 43.1678 28.8352 43.4392C28.5519 43.697 28.4103 44.0023 28.4103 44.355C28.4103 44.7078 28.5249 45.0199 28.7543 45.2913C28.9837 45.5491 29.3344 45.8001 29.8067 46.0443C30.2789 46.275 30.8725 46.5124 31.5876 46.7567C32.0463 46.9195 32.4848 47.123 32.903 47.3673C33.3348 47.6115 33.7193 47.91 34.0566 48.2628C34.4073 48.602 34.6772 49.009 34.8661 49.4839C35.0684 49.9453 35.1696 50.4812 35.1696 51.0918C35.1696 51.7838 35.0347 52.4012 34.7649 52.9439C34.495 53.4867 34.124 53.948 33.6518 54.3279C33.1796 54.6943 32.6467 54.9724 32.053 55.1624C31.4729 55.3659 30.859 55.4677 30.2114 55.4677C29.3479 55.4677 28.5384 55.3048 27.7829 54.9792C27.0408 54.64 26.3932 54.1854 25.8401 53.6156C25.2869 53.0457 24.8552 52.4283 24.5449 51.7635L26.6091 50.2981Z" fill="white"/>
<path d="M15.3788 55.0817V52.6191H22.5227V55.0817H15.3788ZM15.3788 43.2975V40.8348H22.5227V43.2975H15.3788ZM15.3788 48.7317V46.3097H22.1179V48.7317H15.3788ZM13.5169 40.8348H16.3097V55.0817H13.5169V40.8348Z" fill="white"/>
<path d="M4.18496 48.4467H7.24085L11.855 55.0817H8.43487L4.18496 48.4467ZM0.967169 40.8348H3.86116V55.0817H0.967169V40.8348ZM2.72785 43.3178V40.8348H5.72302C6.84284 40.8348 7.79401 41.0247 8.57654 41.4047C9.35906 41.7846 9.95944 42.3138 10.3777 42.9922C10.7959 43.6706 11.0051 44.4644 11.0051 45.3735C11.0051 46.269 10.7959 47.0627 10.3777 47.7547C9.95944 48.4332 9.35906 48.9623 8.57654 49.3423C7.79401 49.7222 6.84284 49.9121 5.72302 49.9121H2.72785V47.5919H5.54088C6.05357 47.5919 6.49205 47.5105 6.85633 47.3477C7.2341 47.1713 7.52418 46.9271 7.72655 46.615C7.92893 46.2893 8.03012 45.9026 8.03012 45.4549C8.03012 45.0071 7.92893 44.6272 7.72655 44.3151C7.52418 43.9895 7.2341 43.7452 6.85633 43.5824C6.49205 43.406 6.05357 43.3178 5.54088 43.3178H2.72785Z" fill="white"/>
<path d="M121.129 69.2015C120.589 69.2015 120.108 69.0743 119.687 68.8199C119.274 68.557 118.949 68.1966 118.713 67.7386C118.485 67.2807 118.371 66.7507 118.371 66.1486C118.371 65.538 118.489 65.0037 118.726 64.5458C118.97 64.0878 119.307 63.7317 119.737 63.4773C120.176 63.2229 120.682 63.0957 121.255 63.0957C121.829 63.0957 122.318 63.2186 122.722 63.4645C123.136 63.702 123.452 64.0455 123.671 64.4949C123.89 64.9444 124 65.4786 124 66.0977C124 66.1571 123.996 66.2207 123.987 66.2885C123.987 66.3479 123.987 66.386 123.987 66.403H119.016V65.538H123.19L122.786 66.1231C122.811 66.0807 122.836 66.0171 122.862 65.9323C122.887 65.839 122.9 65.7627 122.9 65.7034C122.9 65.3557 122.828 65.0546 122.685 64.8002C122.55 64.5458 122.36 64.3465 122.115 64.2023C121.871 64.0582 121.584 63.9861 121.255 63.9861C120.867 63.9861 120.534 64.0709 120.256 64.2405C119.986 64.4016 119.775 64.6391 119.624 64.9528C119.48 65.2581 119.404 65.6355 119.396 66.085C119.396 66.5429 119.468 66.933 119.611 67.2553C119.754 67.5775 119.965 67.8234 120.243 67.993C120.522 68.1626 120.859 68.2475 121.255 68.2475C121.652 68.2475 122.002 68.1626 122.305 67.993C122.609 67.815 122.866 67.5478 123.077 67.1917L123.899 67.7132C123.595 68.2051 123.212 68.5782 122.748 68.8326C122.292 69.0785 121.753 69.2015 121.129 69.2015Z" fill="white"/>
<path d="M110.763 66.1486C110.763 66.5556 110.847 66.916 111.016 67.2298C111.193 67.5436 111.429 67.7938 111.724 67.9803C112.028 68.1584 112.369 68.2475 112.749 68.2475C113.061 68.2475 113.352 68.2008 113.622 68.1075C113.9 68.0058 114.14 67.8743 114.343 67.7132C114.545 67.5436 114.688 67.3655 114.773 67.1789V68.451C114.57 68.6884 114.279 68.875 113.9 69.0107C113.529 69.1379 113.145 69.2015 112.749 69.2015C112.184 69.2015 111.674 69.07 111.218 68.8072C110.763 68.5443 110.4 68.1838 110.131 67.7259C109.869 67.2595 109.739 66.7337 109.739 66.1486C109.739 65.5549 109.869 65.0292 110.131 64.5712C110.4 64.1133 110.763 63.7529 111.218 63.49C111.674 63.2271 112.184 63.0957 112.749 63.0957C113.145 63.0957 113.529 63.1635 113.9 63.2992C114.279 63.4264 114.57 63.6087 114.773 63.8462V65.1182C114.688 64.9232 114.545 64.7451 114.343 64.584C114.14 64.4228 113.9 64.2956 113.622 64.2023C113.352 64.1006 113.061 64.0497 112.749 64.0497C112.369 64.0497 112.028 64.1387 111.724 64.3168C111.429 64.4949 111.193 64.7451 111.016 65.0673C110.847 65.3811 110.763 65.7415 110.763 66.1486Z" fill="white"/>
<path d="M104.493 60.804C104.493 60.6089 104.56 60.4436 104.695 60.3079C104.838 60.1722 105.003 60.1043 105.188 60.1043C105.382 60.1043 105.547 60.1722 105.682 60.3079C105.816 60.4436 105.884 60.6089 105.884 60.804C105.884 60.9905 105.816 61.1559 105.682 61.3001C105.547 61.4358 105.382 61.5036 105.188 61.5036C105.003 61.5036 104.838 61.4358 104.695 61.3001C104.56 61.1559 104.493 60.9905 104.493 60.804ZM104.682 63.2209H105.694V69.0723H104.682V63.2209Z" fill="white"/>
<path d="M95.4434 63.2224H96.5818L98.2261 67.3565L99.8704 63.2224H101.009L98.2261 69.519L95.4434 63.2224Z" fill="white"/>
<path d="M90.1557 63.2229V69.0743H89.1439V63.2229H90.1557ZM91.9139 64.3423C91.779 64.2405 91.6567 64.1684 91.5471 64.126C91.4375 64.0751 91.2983 64.0497 91.1297 64.0497C90.8767 64.0497 90.6785 64.1133 90.5352 64.2405C90.3918 64.3677 90.2907 64.5415 90.2316 64.762C90.181 64.9825 90.1557 65.2327 90.1557 65.5125H89.7004C89.7004 65.0461 89.7805 64.6348 89.9407 64.2787C90.1094 63.914 90.3244 63.6257 90.5858 63.4137C90.8472 63.2017 91.1128 63.0957 91.3826 63.0957C91.5935 63.0957 91.7874 63.1253 91.9645 63.1847C92.15 63.2356 92.3186 63.3416 92.4704 63.5027L91.9139 64.3423Z" fill="white"/>
<path d="M82.3555 69.2015C81.8159 69.2015 81.3352 69.0743 80.9136 68.8199C80.5004 68.557 80.1758 68.1966 79.9397 67.7386C79.712 67.2807 79.5982 66.7507 79.5982 66.1486C79.5982 65.538 79.7162 65.0037 79.9523 64.5458C80.1969 64.0878 80.5341 63.7317 80.9642 63.4773C81.4027 63.2229 81.9086 63.0957 82.482 63.0957C83.0554 63.0957 83.5445 63.2186 83.9493 63.4645C84.3624 63.702 84.6787 64.0455 84.8979 64.4949C85.1171 64.9444 85.2268 65.4786 85.2268 66.0977C85.2268 66.1571 85.2225 66.2207 85.2141 66.2885C85.2141 66.3479 85.2141 66.386 85.2141 66.403H80.2432V65.538H84.4173L84.0125 66.1231C84.0378 66.0807 84.0631 66.0171 84.0884 65.9323C84.1137 65.839 84.1263 65.7627 84.1263 65.7034C84.1263 65.3557 84.0547 65.0546 83.9113 64.8002C83.7764 64.5458 83.5867 64.3465 83.3421 64.2023C83.0976 64.0582 82.8109 63.9861 82.482 63.9861C82.0941 63.9861 81.761 64.0709 81.4828 64.2405C81.2129 64.4016 81.0021 64.6391 80.8504 64.9528C80.707 65.2581 80.6311 65.6355 80.6227 66.085C80.6227 66.5429 80.6944 66.933 80.8377 67.2553C80.9811 67.5775 81.1919 67.8234 81.4701 67.993C81.7484 68.1626 82.0857 68.2475 82.482 68.2475C82.8783 68.2475 83.2283 68.1626 83.5319 67.993C83.8354 67.815 84.0926 67.5478 84.3034 67.1917L85.1256 67.7132C84.822 68.2051 84.4383 68.5782 83.9745 68.8326C83.5192 69.0785 82.9795 69.2015 82.3555 69.2015Z" fill="white"/>
<path d="M72.7132 67.2807C72.8313 67.4588 72.9662 67.6241 73.118 67.7768C73.2698 67.9294 73.4426 68.0524 73.6366 68.1457C73.839 68.2305 74.0582 68.2729 74.2943 68.2729C74.581 68.2729 74.8045 68.2093 74.9647 68.0821C75.1333 67.9464 75.2177 67.7641 75.2177 67.5351C75.2177 67.3316 75.1502 67.162 75.0153 67.0263C74.8888 66.8821 74.7244 66.7634 74.522 66.6701C74.3196 66.5683 74.1046 66.4751 73.8769 66.3903C73.6239 66.2885 73.3667 66.1698 73.1053 66.0341C72.8524 65.8899 72.6374 65.7076 72.4603 65.4871C72.2916 65.2581 72.2073 64.974 72.2073 64.6348C72.2073 64.2871 72.2958 63.9988 72.4729 63.7698C72.6584 63.5409 72.8945 63.3713 73.1812 63.261C73.4764 63.1508 73.7799 63.0957 74.0919 63.0957C74.4039 63.0957 74.6948 63.1465 74.9647 63.2483C75.243 63.3501 75.4875 63.4857 75.6983 63.6554C75.9091 63.825 76.0735 64.02 76.1916 64.2405L75.3821 64.762C75.2219 64.5415 75.0195 64.3592 74.775 64.2151C74.5388 64.0709 74.269 63.9988 73.9654 63.9988C73.7546 63.9988 73.5733 64.0454 73.4216 64.1387C73.2698 64.232 73.1939 64.3762 73.1939 64.5712C73.1939 64.7239 73.2529 64.8596 73.371 64.9783C73.489 65.097 73.6408 65.203 73.8263 65.2963C74.0118 65.3896 74.2058 65.4786 74.4081 65.5634C74.7454 65.6991 75.0532 65.8475 75.3315 66.0086C75.6098 66.1613 75.829 66.3479 75.9892 66.5683C76.1579 66.7888 76.2422 67.0729 76.2422 67.4206C76.2422 67.9294 76.0567 68.3535 75.6856 68.6927C75.3231 69.0319 74.8424 69.2015 74.2437 69.2015C73.8558 69.2015 73.5059 69.1336 73.1939 68.998C72.8819 68.8538 72.6163 68.6715 72.397 68.451C72.1862 68.2305 72.026 68.0058 71.9164 67.7768L72.7132 67.2807Z" fill="white"/>
<path d="M56.0157 69.4559H57.0403C57.0403 69.7358 57.1161 69.9944 57.2679 70.2319C57.4197 70.4778 57.6347 70.6728 57.913 70.817C58.1913 70.9696 58.5201 71.046 58.8996 71.046C59.1947 71.046 59.4856 70.9739 59.7723 70.8297C60.059 70.6855 60.2952 70.4566 60.4807 70.1428C60.6746 69.8375 60.7716 69.4389 60.7716 68.9471V63.2229H61.7835V68.9471C61.7835 69.617 61.6443 70.1767 61.3661 70.6262C61.0878 71.0841 60.7294 71.4276 60.2909 71.6565C59.8525 71.8855 59.3887 72 58.8996 72C58.3346 72 57.8329 71.894 57.3944 71.682C56.9644 71.47 56.6271 71.1689 56.3825 70.7788C56.138 70.3972 56.0157 69.9562 56.0157 69.4559ZM55.9019 66.1486C55.9019 65.5125 56.0326 64.9698 56.294 64.5203C56.5554 64.0624 56.9053 63.7105 57.3438 63.4645C57.7823 63.2186 58.263 63.0957 58.7858 63.0957C59.2748 63.0957 59.7007 63.2186 60.0633 63.4645C60.4259 63.7105 60.7083 64.0624 60.9107 64.5203C61.1215 64.9698 61.2269 65.5125 61.2269 66.1486C61.2269 66.7761 61.1215 67.3189 60.9107 67.7768C60.7083 68.2347 60.4259 68.5867 60.0633 68.8326C59.7007 69.0785 59.2748 69.2015 58.7858 69.2015C58.263 69.2015 57.7823 69.0785 57.3438 68.8326C56.9053 68.5867 56.5554 68.2347 56.294 67.7768C56.0326 67.3189 55.9019 66.7761 55.9019 66.1486ZM56.9264 66.1486C56.9264 66.598 57.015 66.9796 57.192 67.2934C57.3776 67.6072 57.6221 67.8446 57.9257 68.0058C58.2292 68.1669 58.5581 68.2475 58.9122 68.2475C59.2074 68.2475 59.4983 68.1669 59.785 68.0058C60.0717 67.8446 60.3078 67.6072 60.4933 67.2934C60.6788 66.9796 60.7716 66.598 60.7716 66.1486C60.7716 65.8094 60.7168 65.5125 60.6072 65.2581C60.4975 64.9952 60.35 64.7748 60.1645 64.5967C59.9874 64.4186 59.7892 64.2829 59.57 64.1896C59.3507 64.0963 59.1315 64.0497 58.9122 64.0497C58.5581 64.0497 58.2292 64.1303 57.9257 64.2914C57.6221 64.4525 57.3776 64.69 57.192 65.0037C57.015 65.3175 56.9264 65.6991 56.9264 66.1486Z" fill="white"/>
<path d="M50.9645 65.5125C50.9645 65.0292 50.8591 64.6645 50.6483 64.4186C50.4375 64.1727 50.1297 64.0497 49.725 64.0497C49.4298 64.0497 49.1684 64.1133 48.9407 64.2405C48.7215 64.3592 48.5486 64.5288 48.4221 64.7493C48.3041 64.9698 48.2451 65.2242 48.2451 65.5125V69.0743H47.2332V63.2229H48.2451V64.1387C48.439 63.7826 48.6793 63.5197 48.966 63.3501C49.2612 63.1805 49.5985 63.0957 49.9779 63.0957C50.5935 63.0957 51.0783 63.3034 51.4325 63.719C51.7951 64.126 51.9764 64.6815 51.9764 65.3853V69.0743H50.9645V65.5125Z" fill="white"/>
<path d="M41.4178 60.804C41.4178 60.6089 41.4853 60.4436 41.6202 60.3079C41.7635 60.1722 41.928 60.1043 42.1135 60.1043C42.3074 60.1043 42.4719 60.1722 42.6068 60.3079C42.7417 60.4436 42.8092 60.6089 42.8092 60.804C42.8092 60.9905 42.7417 61.1559 42.6068 61.3001C42.4719 61.4358 42.3074 61.5036 42.1135 61.5036C41.928 61.5036 41.7635 61.4358 41.6202 61.3001C41.4853 61.1559 41.4178 60.9905 41.4178 60.804ZM41.6075 63.2209H42.6194V69.0723H41.6075V63.2209Z" fill="white"/>
<path d="M35.974 65.5125C35.974 65.0292 35.8686 64.6645 35.6578 64.4186C35.447 64.1727 35.1392 64.0497 34.7344 64.0497C34.4393 64.0497 34.1779 64.1133 33.9502 64.2405C33.731 64.3592 33.5581 64.5288 33.4316 64.7493C33.3136 64.9698 33.2546 65.2242 33.2546 65.5125V69.0743H32.2427V63.2229H33.2546V64.1387C33.4485 63.7826 33.6888 63.5197 33.9755 63.3501C34.2707 63.1805 34.608 63.0957 34.9874 63.0957C35.603 63.0957 36.0878 63.3034 36.442 63.719C36.8046 64.126 36.9859 64.6815 36.9859 65.3853V69.0743H35.974V65.5125Z" fill="white"/>
<path d="M24.0785 67.268C24.0785 67.4885 24.1291 67.6793 24.2303 67.8404C24.3399 68.0015 24.4875 68.1245 24.673 68.2093C24.8669 68.2856 25.0862 68.3238 25.3307 68.3238C25.6427 68.3238 25.921 68.2602 26.1655 68.133C26.4185 68.0058 26.6166 67.8277 26.76 67.5987C26.9118 67.3613 26.9877 67.0899 26.9877 66.7846L27.19 67.5478C27.19 67.921 27.0762 68.2305 26.8485 68.4764C26.6293 68.7224 26.3552 68.9047 26.0264 69.0234C25.7059 69.1421 25.3855 69.2015 25.0651 69.2015C24.7109 69.2015 24.3778 69.1294 24.0658 68.9852C23.7623 68.8326 23.5177 68.6163 23.3322 68.3365C23.1467 68.0566 23.054 67.7174 23.054 67.3189C23.054 66.7507 23.2521 66.297 23.6484 65.9578C24.0532 65.6101 24.6139 65.4362 25.3307 65.4362C25.7523 65.4362 26.1023 65.4871 26.3805 65.5889C26.6672 65.6822 26.8949 65.7924 27.0635 65.9196C27.2322 66.0383 27.346 66.1359 27.4051 66.2122V66.81C27.1099 66.6065 26.8064 66.4623 26.4944 66.3775C26.1824 66.2843 25.8493 66.2376 25.4951 66.2376C25.1663 66.2376 24.8964 66.28 24.6856 66.3648C24.4832 66.4496 24.3315 66.5683 24.2303 66.721C24.1291 66.8736 24.0785 67.056 24.0785 67.268ZM23.9267 64.5712L23.4334 63.8207C23.6527 63.6596 23.952 63.4985 24.3315 63.3373C24.7193 63.1762 25.1831 63.0957 25.7228 63.0957C26.1781 63.0957 26.5745 63.1677 26.9118 63.3119C27.2575 63.4476 27.5231 63.6469 27.7086 63.9098C27.9026 64.1727 27.9995 64.4949 27.9995 64.8765V69.0743H26.9877V65.0164C26.9877 64.8129 26.9539 64.6476 26.8865 64.5203C26.819 64.3847 26.722 64.2787 26.5956 64.2023C26.4775 64.126 26.3384 64.0709 26.1781 64.037C26.0179 64.003 25.8493 63.9861 25.6722 63.9861C25.3855 63.9861 25.1241 64.02 24.888 64.0879C24.6603 64.1557 24.4664 64.2363 24.3062 64.3295C24.1459 64.4228 24.0195 64.5034 23.9267 64.5712Z" fill="white"/>
<path d="M16.8351 69.2015C16.2954 69.2015 15.8148 69.0743 15.3931 68.8199C14.9799 68.557 14.6553 68.1966 14.4192 67.7386C14.1915 67.2807 14.0777 66.7507 14.0777 66.1486C14.0777 65.538 14.1957 65.0037 14.4318 64.5458C14.6764 64.0878 15.0137 63.7317 15.4437 63.4773C15.8822 63.2229 16.3882 63.0957 16.9616 63.0957C17.535 63.0957 18.024 63.2186 18.4288 63.4645C18.842 63.702 19.1582 64.0455 19.3774 64.4949C19.5967 64.9444 19.7063 65.4786 19.7063 66.0977C19.7063 66.1571 19.7021 66.2207 19.6936 66.2885C19.6936 66.3479 19.6936 66.386 19.6936 66.403H14.7228V65.538H18.8968L18.492 66.1231C18.5173 66.0807 18.5426 66.0171 18.5679 65.9323C18.5932 65.839 18.6059 65.7627 18.6059 65.7034C18.6059 65.3557 18.5342 65.0546 18.3908 64.8002C18.2559 64.5458 18.0662 64.3465 17.8217 64.2023C17.5771 64.0582 17.2904 63.9861 16.9616 63.9861C16.5737 63.9861 16.2406 64.0709 15.9623 64.2405C15.6925 64.4016 15.4817 64.6391 15.3299 64.9528C15.1865 65.2581 15.1107 65.6355 15.1022 66.085C15.1022 66.5429 15.1739 66.933 15.3172 67.2553C15.4606 67.5775 15.6714 67.8234 15.9497 67.993C16.2279 68.1626 16.5652 68.2475 16.9616 68.2475C17.3579 68.2475 17.7078 68.1626 18.0114 67.993C18.3149 67.815 18.5721 67.5478 18.7829 67.1917L19.6051 67.7132C19.3015 68.2051 18.9179 68.5782 18.4541 68.8326C17.9987 69.0785 17.4591 69.2015 16.8351 69.2015Z" fill="white"/>
<path d="M9.13932 59.1503H10.1512V69.0723H9.13932V59.1503Z" fill="white"/>
<path d="M1.02453 66.1486C1.02453 66.5556 1.10886 66.916 1.2775 67.2298C1.45458 67.5436 1.69069 67.7938 1.98582 67.9803C2.28939 68.1584 2.6309 68.2475 3.01035 68.2475C3.32235 68.2475 3.61327 68.2008 3.8831 68.1075C4.16137 68.0058 4.40169 67.8743 4.60407 67.7132C4.80645 67.5436 4.9498 67.3655 5.03412 67.1789V68.451C4.83175 68.6884 4.54083 68.875 4.16137 69.0107C3.79035 69.1379 3.40668 69.2015 3.01035 69.2015C2.44539 69.2015 1.93523 69.07 1.47988 68.8072C1.02453 68.5443 0.661941 68.1838 0.392105 67.7259C0.130702 67.2595 0 66.7337 0 66.1486C0 65.5549 0.130702 65.0292 0.392105 64.5712C0.661941 64.1133 1.02453 63.7529 1.47988 63.49C1.93523 63.2271 2.44539 63.0957 3.01035 63.0957C3.40668 63.0957 3.79035 63.1635 4.16137 63.2992C4.54083 63.4264 4.83175 63.6087 5.03412 63.8462V65.1182C4.9498 64.9232 4.80645 64.7451 4.60407 64.584C4.40169 64.4228 4.16137 64.2956 3.8831 64.2023C3.61327 64.1006 3.32235 64.0497 3.01035 64.0497C2.6309 64.0497 2.28939 64.1387 1.98582 64.3168C1.69069 64.4949 1.45458 64.7451 1.2775 65.0673C1.10886 65.3811 1.02453 65.7415 1.02453 66.1486Z" fill="white"/>
<defs>
<linearGradient id="paint0_linear_6003_528" x1="4.92742" y1="-2.9165" x2="17.3903" y2="35.6997" gradientUnits="userSpaceOnUse">
<stop stop-color="#AAFFEF"/>
<stop offset="0.1409" stop-color="#96F8E5"/>
<stop offset="0.168639" stop-color="#82EBD7"/>
<stop offset="0.4714" stop-color="#6DD8C4"/>
<stop offset="0.724227" stop-color="#62CAB7"/>
<stop offset="0.8518" stop-color="#5CC3B0"/>
<stop offset="1" stop-color="#5CC3B0"/>
</linearGradient>
<linearGradient id="paint1_linear_6003_528" x1="47.863" y1="-2.91667" x2="60.3271" y2="35.7013" gradientUnits="userSpaceOnUse">
<stop stop-color="#AAFFEF"/>
<stop offset="0.1409" stop-color="#96F8E5"/>
<stop offset="0.168639" stop-color="#82EBD7"/>
<stop offset="0.4714" stop-color="#6DD8C4"/>
<stop offset="0.724227" stop-color="#62CAB7"/>
<stop offset="0.8518" stop-color="#5CC3B0"/>
<stop offset="1" stop-color="#5CC3B0"/>
</linearGradient>
<linearGradient id="paint2_linear_6003_528" x1="90.7985" y1="-2.91667" x2="103.263" y2="35.7013" gradientUnits="userSpaceOnUse">
<stop stop-color="#AAFFEF"/>
<stop offset="0.1409" stop-color="#96F8E5"/>
<stop offset="0.168639" stop-color="#82EBD7"/>
<stop offset="0.4714" stop-color="#6DD8C4"/>
<stop offset="0.724227" stop-color="#62CAB7"/>
<stop offset="0.8518" stop-color="#5CC3B0"/>
<stop offset="1" stop-color="#5CC3B0"/>
</linearGradient>
</defs>
</svg>
