<svg width="30" height="33" viewBox="0 0 30 33" fill="none" xmlns="http://www.w3.org/2000/svg">
<path d="M21.2279 3.08782L26.3818 3.69864C27.281 3.80522 27.9758 4.56274 27.9089 5.52519C27.7064 8.43991 26.4637 14.8623 19.9649 21.7943C13.4662 28.7263 7.44435 30.0529 4.71128 30.2694C3.80882 30.3409 3.09841 29.5997 2.99847 28.6404L2.42587 23.1433C2.34068 22.3255 2.71913 21.5319 3.38895 21.1238L7.19164 18.8066C7.94904 18.3451 8.90231 18.4813 9.51909 19.1392L10.8351 20.543C11.2925 21.0308 11.9507 21.2375 12.5443 20.9633C13.4371 20.5508 14.855 19.7024 16.4285 18.024C18.002 16.3456 18.7974 14.8332 19.1841 13.8808C19.4412 13.2477 19.2474 12.5455 18.7901 12.0577L17.474 10.6539C16.8573 9.99602 16.7295 8.9792 17.1622 8.17131L19.3346 4.1151C19.7172 3.40064 20.4612 2.99695 21.2279 3.08782Z" stroke="#383535" stroke-width="2" stroke-linecap="round" stroke-linejoin="round"/>
</svg>
