<svg width="30" height="32" viewBox="0 0 30 32" fill="none" xmlns="http://www.w3.org/2000/svg">
<path d="M21.2279 2.58782L26.3818 3.19864C27.281 3.30522 27.9758 4.06274 27.9089 5.02519C27.7064 7.93991 26.4637 14.3623 19.9649 21.2943C13.4662 28.2263 7.44435 29.5529 4.71128 29.7694C3.80882 29.8409 3.09841 29.0997 2.99847 28.1404L2.42587 22.6433C2.34068 21.8255 2.71913 21.0319 3.38895 20.6238L7.19164 18.3066C7.94904 17.8451 8.90231 17.9813 9.51909 18.6392L10.8351 20.043C11.2925 20.5308 11.9507 20.7375 12.5443 20.4633C13.4371 20.0508 14.855 19.2024 16.4285 17.524C18.002 15.8456 18.7974 14.3332 19.1841 13.3808C19.4412 12.7477 19.2474 12.0455 18.7901 11.5577L17.474 10.1539C16.8573 9.49602 16.7295 8.4792 17.1622 7.67131L19.3346 3.6151C19.7172 2.90064 20.4612 2.49695 21.2279 2.58782Z" stroke="white" stroke-width="2" stroke-linecap="round" stroke-linejoin="round"/>
</svg>
