<svg width="66" height="64" viewBox="0 0 66 64" fill="none" xmlns="http://www.w3.org/2000/svg">
<path d="M2.94092 62.1214C2.96225 63.1674 3.8153 64.0213 4.86028 64L63.1022 63.2955C64.1472 63.2742 65.0002 62.4203 64.9789 61.3529C64.9576 60.3069 64.1045 59.453 63.0596 59.4743L4.81763 60.1788C3.77264 60.2001 2.9196 61.054 2.94092 62.1214Z" fill="#F97F68"/>
<path d="M27.594 55.9093C27.6154 55.9093 27.6154 55.9093 27.6367 55.9093L36.4018 55.7598C38.2358 55.7385 39.6647 53.9453 39.6434 51.7038L39.3661 18.3589C39.3661 17.1421 38.9183 16.0107 38.1505 15.2635C37.5534 14.6871 36.807 14.3669 36.0392 14.3883L27.2741 14.5377C25.4401 14.559 24.0112 16.3522 24.0326 18.5937L24.3311 51.9386C24.3311 53.1554 24.779 54.2869 25.5467 55.034C26.1012 55.5891 26.8476 55.9093 27.594 55.9093ZM27.2955 17.3129L36.0606 17.1634C36.1672 17.1848 36.551 17.5904 36.5724 18.3803L36.8709 51.7251C36.8709 52.5577 36.4657 52.9633 36.3591 52.9847L27.594 53.1341C27.4874 53.1341 27.1035 52.7285 27.0822 51.9173L26.805 18.5724C26.7836 17.7398 27.2102 17.3129 27.2955 17.3129Z" fill="#F97F68"/>
<path d="M50.669 55.7812C50.6903 55.7812 50.7117 55.7812 50.733 55.7812L59.4981 55.5677C61.3535 55.525 62.7397 53.3689 62.7397 50.5297L62.4198 4.93129C62.4198 3.20214 61.8653 1.66511 60.9696 0.78986C60.4364 0.256171 59.7966 0 59.0929 0L50.3278 0.213476C48.4724 0.256171 47.0862 2.41227 47.0862 5.2515L47.3848 50.8713C47.3848 52.5791 47.9393 54.1374 48.835 55.0127C49.3468 55.5037 49.9866 55.7812 50.669 55.7812ZM50.4771 2.98866L59.0502 2.79653C59.2422 2.96731 59.6474 3.69313 59.6474 4.95264L59.9459 50.5724C59.9459 51.8105 59.5407 52.6217 59.3275 52.8139L50.7543 53.006C50.5624 52.8352 50.1572 52.1094 50.1572 50.8499L49.8586 5.23015C49.8586 3.97065 50.2638 3.18079 50.4771 2.98866Z" fill="#F97F68"/>
<path d="M15.1182 26.044C14.5211 25.4676 13.7746 25.1474 13.0069 25.1688L4.24182 25.3182C2.40777 25.3396 0.978909 27.1328 1.00024 29.3743L1.19217 52.0667C1.19217 53.2835 1.64002 54.4149 2.40777 55.1621C2.98357 55.7171 3.70867 56.0374 4.47641 56.0374C4.49774 56.0374 4.49774 56.0374 4.51906 56.0374L13.2841 55.8879C15.1182 55.8452 16.5471 54.0734 16.5257 51.8319L16.3551 29.1394C16.3338 27.9226 15.8859 26.7912 15.1182 26.044ZM13.2628 53.0914L4.49774 53.2408C4.39111 53.2195 4.00723 52.8352 3.98591 52.024L3.77264 29.3529C3.77264 28.5203 4.17784 28.0934 4.28447 28.0934L13.0496 27.944C13.1562 27.9653 13.5401 28.3709 13.5614 29.1608L13.7533 51.8532C13.7746 52.6644 13.3481 53.0914 13.2628 53.0914Z" fill="#F97F68"/>
</svg>
