<svg width="66" height="64" viewBox="0 0 66 64" fill="none" xmlns="http://www.w3.org/2000/svg">
<path d="M51.8757 0.690371C51.6585 0.124809 51.0236 -0.141337 50.4723 0.0749069C49.9042 0.291151 49.6369 0.923249 49.8541 1.47218L53.0118 9.57301C53.0285 9.60628 53.0452 9.62292 53.0619 9.65619L50.7229 11.9683L47.8827 4.41642C47.6655 3.85086 47.0473 3.56808 46.4793 3.78433C45.9112 4.00057 45.6272 4.61603 45.8444 5.1816L49.002 13.5319C49.0188 13.5652 49.0355 13.5985 49.0689 13.6318L43.5722 19.1044C38.9443 14.8627 32.7794 12.2677 25.9963 12.2677C11.6449 12.2677 0 23.8784 0 38.1339C0 52.3894 11.6449 64 25.9796 64C40.2976 64 51.9592 52.406 51.9592 38.1339C51.9592 31.397 49.3529 25.2424 45.0926 20.6514L49.9878 15.7776C50.1548 16.0271 50.4389 16.1934 50.7563 16.2267L60.9811 17.3412C61.0145 17.3412 61.0646 17.3412 61.098 17.3412C61.6494 17.3412 62.1172 16.9253 62.184 16.3764C62.2508 15.7776 61.8164 15.2453 61.215 15.1787L51.6251 14.1308L54.4319 11.3362C54.482 11.3529 54.5154 11.3695 54.5655 11.3695L64.7903 12.484C64.8237 12.484 64.8738 12.484 64.9072 12.484C65.4586 12.484 65.9264 12.0681 65.9932 11.5192C66.06 10.9204 65.6257 10.3881 65.0242 10.3216L56.3699 9.3734L61.6159 4.15028C62.0336 3.73442 62.0336 3.03579 61.6159 2.61993C61.1983 2.20408 60.4966 2.20408 60.0789 2.61993L54.6992 7.97613L51.8757 0.690371ZM49.7706 38.1339C49.7706 51.1917 39.0947 61.8209 25.9796 61.8209C12.8645 61.8209 2.18864 51.1917 2.18864 38.1339C2.18864 25.0761 12.8645 14.4468 25.9796 14.4468C32.1445 14.4468 37.7748 16.7922 42.0018 20.6514L36.856 25.7747C33.9489 23.2297 30.1397 21.6827 25.9629 21.6827C16.8408 21.6827 9.42283 29.0683 9.42283 38.1505C9.42283 47.2328 16.8408 54.6183 25.9629 54.6183C35.085 54.6183 42.503 47.2328 42.503 38.1505C42.503 34.0086 40.9492 30.216 38.393 27.305L43.5388 22.1817C47.3982 26.3902 49.7706 31.9959 49.7706 38.1339ZM25.1944 38.899C25.4116 39.1153 25.6789 39.2151 25.9629 39.2151C26.2469 39.2151 26.5142 39.1153 26.7314 38.899L30.0896 35.5556C30.5574 36.3041 30.8414 37.1857 30.8414 38.1339C30.8414 40.812 28.6528 42.9911 25.9629 42.9911C23.2731 42.9911 21.0844 40.812 21.0844 38.1339C21.0844 35.4558 23.2731 33.2767 25.9629 33.2767C26.9152 33.2767 27.8007 33.5595 28.5525 34.0252L25.1944 37.3687C24.7767 37.7846 24.7767 38.4832 25.1944 38.899ZM30.123 32.4616C28.9535 31.6133 27.5167 31.0976 25.9796 31.0976C22.0868 31.0976 18.9292 34.2415 18.9292 38.1172C18.9292 41.993 22.0868 45.1369 25.9796 45.1369C29.8724 45.1369 33.03 41.993 33.03 38.1172C33.03 36.5703 32.5121 35.1397 31.66 33.992L36.856 28.8187C39.0112 31.3139 40.331 34.5742 40.331 38.1172C40.331 46.0018 33.8988 52.406 25.9796 52.406C18.0604 52.406 11.6282 46.0018 11.6282 38.1172C11.6282 30.2326 18.0604 23.8285 25.9796 23.8285C29.5382 23.8285 32.8128 25.126 35.3189 27.2884L30.123 32.4616Z" fill="#F97F68"/>
</svg>
