<svg width="66" height="64" viewBox="0 0 66 64" fill="none" xmlns="http://www.w3.org/2000/svg">
<path d="M58.4122 10.7952C58.4122 10.7952 55.3422 11.7567 51.5257 11.7567C44.7444 11.7567 39.866 8.98836 37.0062 3.45174C35.9444 1.42306 34.5671 0.36645 34.3568 0.260789C33.8311 -0.161853 32.9795 -0.0561925 32.5589 0.472111L30.33 3.13476C24.8208 9.84421 18.1446 11.2284 13.5816 11.2284C10.7219 11.2284 8.70323 10.7001 8.70323 10.7001C7.85161 10.4782 7 11.1121 7 11.968V39.9892C7 48.4104 13.0454 54.4753 20.2473 58.6277C26.6081 62.2519 32.8638 63.8474 33.1792 63.953C33.3895 63.953 33.5998 64.0587 33.8101 63.953C34.0203 63.8474 40.3812 62.3576 46.742 58.6277C53.9544 54.4753 59.9893 48.3998 59.9893 39.9892V12.0737C60.1049 11.1121 59.2638 10.4782 58.4122 10.7952ZM57.4555 39.9892C57.4555 46.276 53.4287 51.707 45.5855 56.2926C40.2865 59.2723 34.9876 60.8783 33.6103 61.301C32.233 60.984 26.9341 59.3885 21.6351 56.2926C13.7814 51.707 9.7546 46.2654 9.7546 39.9892V13.6797C10.7114 13.891 12.0887 13.9967 13.6762 13.9967C18.87 13.9967 26.2927 12.4012 32.4433 4.94156L33.7154 3.34608C34.0308 3.66306 34.3463 4.09627 34.567 4.62457C38.699 12.7182 46.0165 14.4299 51.4206 14.4299C53.8598 14.4299 55.9836 14.1129 57.466 13.7959V39.9892H57.4555Z" fill="#F97F68"/>
<path d="M36.4701 13.247C35.6185 11.7571 34.4515 10.9013 34.3463 10.7956C33.8206 10.4787 33.0742 10.5843 32.6536 11.007L30.9609 13.0356C26.829 17.727 21.9506 18.7836 18.4495 18.7836C16.3258 18.7836 14.8433 18.3609 14.8433 18.3609C13.9917 18.1496 13.1506 18.7836 13.1506 19.6394V39.6621C13.1506 44.9874 16.6517 49.7844 23.4331 53.4086C28.3114 56.0712 33.0742 57.1384 33.295 57.2441C33.5052 57.2441 33.7155 57.2441 33.9258 57.2441C34.1361 57.2441 38.9093 56.0712 43.7877 53.4086C50.4639 49.7844 54.0701 44.998 54.0701 39.6621V19.6394C54.0701 18.7836 53.2185 18.1496 52.3774 18.3609C52.3774 18.3609 50.1485 19.0055 47.1836 19.0055C42.0845 19.1006 38.4782 17.0824 36.4701 13.247ZM51.305 21.3406V39.7678C51.305 49.5731 35.9339 54.0425 33.5999 54.6765C31.2658 54.0425 15.8947 49.6682 15.8947 39.7678V21.2349C16.6412 21.3406 17.4823 21.4462 18.5442 21.4462C28.7215 21.4462 33.2739 14.1979 33.705 13.9866C33.8101 14.1979 34.0204 14.4092 34.1255 14.6206C37.3007 20.5904 42.9256 21.7632 47.1626 21.7632C48.7607 21.7738 50.2536 21.5519 51.305 21.3406Z" fill="#F97F68"/>
<path d="M21.7299 36.0484C21.7299 42.6522 27.0288 48.0832 33.7051 48.0832C40.3813 48.0832 45.6802 42.7579 45.6802 36.0484C45.6802 29.339 40.171 24.0137 33.5999 24.0137C27.0394 24.0031 21.7299 29.3284 21.7299 36.0484ZM42.9361 36.0484C42.9361 41.1624 38.8042 45.4205 33.6105 45.4205C28.4167 45.4205 24.2848 41.2681 24.2848 36.0484C24.2848 30.8288 28.4167 26.6763 33.6105 26.6763C38.8042 26.6658 42.9361 30.8182 42.9361 36.0484Z" fill="#F97F68"/>
<path d="M30.5299 36.3648C30.0042 35.8365 29.1526 35.8365 28.6269 36.3648C28.1012 36.8931 28.1012 37.7489 28.6269 38.2772L31.2764 40.9399C31.9072 41.5738 32.864 41.4682 33.295 40.7286L38.5834 32.7406C39.004 32.0961 38.7937 31.2508 38.268 30.9338C37.6372 30.5112 36.7856 30.7225 36.4702 31.2508L32.128 37.8546L30.5299 36.3648Z" fill="#F97F68"/>
</svg>
