<svg width="66" height="64" viewBox="0 0 66 64" fill="none" xmlns="http://www.w3.org/2000/svg">
<path d="M60.9936 56.4758L59.2183 31.2721V13.0005C59.2183 11.1475 57.724 9.64001 55.8871 9.64001C55.0734 9.64001 54.327 9.93531 53.7488 10.4255V6.35187C53.7488 4.31578 52.1067 2.65916 50.0884 2.65916C48.9673 2.65916 47.9618 3.17003 47.29 3.97324V3.69271C47.2915 1.65662 45.6493 0 43.631 0C41.6127 0 39.9706 1.65662 39.9706 3.69271V3.97324C39.2988 3.17003 38.2933 2.65916 37.1722 2.65916C35.1539 2.65916 33.5117 4.31578 33.5117 6.35187V15.1739L31.0119 10.8758C30.4162 9.85115 29.3142 9.21626 28.1374 9.21626C27.5476 9.21626 26.9651 9.37572 26.4543 9.6784C25.7532 10.0933 25.2571 10.7297 25.0039 11.4487L22.9607 7.93467C22.3065 6.80958 21.0961 6.1112 19.8008 6.1112C19.1524 6.1112 18.5128 6.2869 17.9508 6.61911C16.9834 7.19051 16.3731 8.14433 16.196 9.18082L16.0555 8.93868C15.4012 7.81359 14.1908 7.11521 12.8956 7.11521C12.2472 7.11521 11.6076 7.29092 11.0456 7.62313C9.30537 8.65372 8.71993 10.9201 9.74152 12.6772L9.88203 12.9193C9.49417 12.7805 9.08144 12.7052 8.65846 12.7052C8.01009 12.7052 7.3705 12.8809 6.80848 13.2131C5.96545 13.7122 5.36538 14.5139 5.11949 15.4677C4.87361 16.423 5.00973 17.4167 5.50442 18.2672L13.1693 31.4434C13.1868 31.5142 13.2088 31.5836 13.2351 31.6515L11.5842 30.8129C10.9563 30.494 10.2552 30.3257 9.55565 30.3257C7.83739 30.3257 6.29037 31.2869 5.51759 32.8342C4.9746 33.9209 4.88532 35.1567 5.26293 36.3128C5.642 37.4689 6.44405 38.4065 7.52125 38.9543L19.7188 45.1467L28.2604 62.8941C28.496 63.3858 28.9292 63.7579 29.4488 63.9158C29.6318 63.972 29.8206 64 30.0123 64C30.3592 64 30.7002 63.907 30.9973 63.7298L39.6998 58.5783H59.0514C59.59 58.5783 60.1082 58.3509 60.477 57.9523C60.8443 57.5566 61.0317 57.0177 60.9936 56.4758ZM43.1934 56.5127H41.1693H39.1451H32.8019L34.3577 36.6067C34.3753 36.3807 34.3182 36.1549 34.1967 35.9644L26.5963 24.1022C25.8571 22.9491 26.1865 21.4047 27.3295 20.6591C27.4905 20.5542 27.6618 20.4701 27.8389 20.4051C28.1038 20.3091 28.3818 20.2589 28.6658 20.2589C28.7624 20.2589 28.8575 20.2648 28.9526 20.2767C29.4547 20.3357 29.9215 20.5454 30.2948 20.8776C30.4645 21.0282 30.6153 21.2024 30.7426 21.3988L32.1799 23.6401L33.3844 25.5182C33.623 25.8903 34.0694 26.0675 34.4953 25.9597C34.9212 25.8504 35.2315 25.4813 35.2651 25.0383L35.4569 22.5962L35.4891 22.1887C35.5388 22.0647 35.5637 21.9333 35.5637 21.8004V20.7388V18.6968V6.35187C35.5637 5.45564 36.2867 4.72625 37.1751 4.72625C38.0635 4.72625 38.7865 5.45564 38.7865 6.35187V20.7107C38.7865 21.006 38.9109 21.2851 39.129 21.4815C39.3471 21.6778 39.6369 21.7709 39.9267 21.7369L41.1136 21.5996C41.6318 21.5405 42.0225 21.0976 42.0225 20.572V3.69271C42.0225 2.79647 42.7455 2.06709 43.6339 2.06709C44.5224 2.06709 45.2454 2.79647 45.2454 3.69271V20.4125C45.2454 20.9396 45.6391 21.3826 46.1586 21.4401L47.3456 21.5701C47.6354 21.6011 47.9237 21.5081 48.1404 21.3117C48.357 21.1153 48.4799 20.8362 48.4799 20.5424V6.35187C48.4799 5.45564 49.2029 4.72625 50.0913 4.72625C50.9797 4.72625 51.7027 5.45564 51.7027 6.35187V22.3408C51.7027 22.549 51.7657 22.7527 51.8828 22.9255L52.739 24.1864C52.9936 24.56 53.459 24.7239 53.8879 24.5895C54.3167 24.4551 54.6094 24.055 54.6094 23.6017V13.0005C54.6094 12.2874 55.1846 11.7071 55.8915 11.7071C56.5985 11.7071 57.1736 12.2874 57.1736 13.0005V31.309C57.1736 31.3341 57.1751 31.3577 57.1766 31.3828L58.9461 56.5127H43.1934ZM20.9497 43.4576L8.44331 37.1072C7.85495 36.8089 7.41587 36.2951 7.20951 35.6647C7.00314 35.0327 7.05144 34.358 7.34855 33.7644C7.77006 32.9184 8.61602 32.3927 9.55565 32.3927C9.94203 32.3927 10.3138 32.4828 10.6621 32.66L15.0061 34.8659C15.3983 35.0652 15.8725 34.9899 16.1857 34.6784C16.4989 34.3668 16.5794 33.8899 16.3877 33.4913L15.151 30.9177C15.1319 30.7863 15.088 30.6593 15.0207 30.5442L7.27098 17.2203C7.0529 16.8453 6.99289 16.4083 7.1012 15.9875C7.20951 15.5667 7.47442 15.2152 7.84471 14.9952C8.09205 14.8491 8.37306 14.7708 8.657 14.7708C9.2278 14.7708 9.76201 15.0779 10.0489 15.574L17.2527 27.9588C17.4005 28.2128 17.6493 28.3915 17.9347 28.449C18.2201 28.5066 18.5187 28.4387 18.7514 28.2615L19.7057 27.538C20.1213 27.2221 20.2369 26.6418 19.9735 26.1885L11.5081 11.6303C11.0588 10.8566 11.3163 9.85853 12.0818 9.40525C12.3292 9.25908 12.6102 9.18082 12.8956 9.18082C13.4664 9.18082 13.9991 9.48794 14.2874 9.98404L22.6753 24.4049C22.9402 24.8597 23.5022 25.0413 23.9794 24.8243L24.5282 24.5747C24.6248 24.7977 24.739 25.0132 24.8736 25.2214L32.2867 36.7897L30.7499 56.4581C30.7075 57.0014 30.8934 57.5448 31.2622 57.9464C31.6296 58.3465 32.1506 58.5769 32.6921 58.5769H35.653L30.0562 61.8901L21.4107 43.9271C21.3127 43.7248 21.1502 43.5595 20.9497 43.4576ZM18.987 8.40124C19.2344 8.25506 19.5154 8.17681 19.7993 8.17681C20.3701 8.17681 20.9029 8.48392 21.1912 8.98002L26.7895 18.6038C26.5919 18.6953 26.3987 18.8016 26.2143 18.9212C25.4195 19.4395 24.8195 20.1792 24.4755 21.0489L18.4118 10.6248C17.9625 9.85263 18.2201 8.85452 18.987 8.40124ZM27.4905 11.4605C27.6881 11.3439 27.9106 11.2819 28.1374 11.2819C28.5911 11.2819 29.0156 11.527 29.2454 11.9212L33.5117 19.2564V21.6276C33.4912 21.6985 33.4766 21.7694 33.4649 21.8403L32.4609 20.2737C31.8828 19.373 31.028 18.7234 30.0445 18.4059L27.0324 13.2279C26.6753 12.6166 26.8802 11.8223 27.4905 11.4605Z" fill="#F97F68"/>
</svg>
