<svg width="66" height="64" viewBox="0 0 66 64" fill="none" xmlns="http://www.w3.org/2000/svg">
<path d="M12.9461 0C10.2166 0 8 2.19501 8 4.89796V59.102C8 61.805 10.2166 64 12.9461 64H54.0539C56.7834 64 59 61.805 59 59.102V4.89796C59 2.19501 56.7834 0 54.0539 0H12.9461ZM57.2597 4.89796V59.102C57.2597 60.8435 55.8308 62.2766 54.0539 62.2766H12.9461C11.1875 62.2766 9.7403 60.8617 9.7403 59.102V4.89796C9.7403 3.15646 11.1692 1.72336 12.9461 1.72336H54.0539C55.8125 1.72336 57.2597 3.15646 57.2597 4.89796Z" fill="#F97F68"/>
<path d="M52.9731 7.43764H14.1002C13.4407 7.43764 12.9095 7.96372 12.9095 8.61678V20.4807C12.9095 21.1338 13.4407 21.6599 14.1002 21.6599H52.9547C53.6142 21.6599 54.1455 21.1338 54.1455 20.4807V8.61678C54.1638 7.96372 53.6325 7.43764 52.9731 7.43764ZM15.3093 19.3197V9.81406H51.7823V19.3197H15.3093Z" fill="#F97F68"/>
<path d="M49.6573 43.4649H42.2198C41.5603 43.4649 41.0291 43.9909 41.0291 44.644V57.8503C41.0291 58.5034 41.5603 59.0295 42.2198 59.0295H49.6573C50.3168 59.0295 50.8481 58.5034 50.8481 57.8503V44.644C50.8481 43.9909 50.3168 43.4649 49.6573 43.4649ZM48.4666 56.6712H43.4106V45.8413H48.4666V56.6712Z" fill="#F97F68"/>
<path d="M43.7953 31.3288H48.0819C49.4009 31.3288 50.4634 30.0952 50.4634 28.5714C50.4634 27.0476 49.4009 25.8141 48.0819 25.8141H43.7953C42.4763 25.8141 41.4138 27.0476 41.4138 28.5714C41.4138 30.0952 42.4763 31.3288 43.7953 31.3288ZM43.7953 26.9932H48.0819C48.7231 26.9932 49.2726 27.7188 49.2726 28.5714C49.2726 29.424 48.7231 30.1497 48.0819 30.1497H43.7953C43.1541 30.1497 42.6045 29.424 42.6045 28.5714C42.6045 27.7007 43.1541 26.9932 43.7953 26.9932Z" fill="#F97F68"/>
<path d="M43.7953 40.1814H48.0819C49.4009 40.1814 50.4634 38.9478 50.4634 37.424C50.4634 35.9002 49.4009 34.6667 48.0819 34.6667H43.7953C42.4763 34.6667 41.4138 35.9002 41.4138 37.424C41.4138 38.9478 42.4763 40.1814 43.7953 40.1814ZM43.7953 35.8458H48.0819C48.7231 35.8458 49.2726 36.5714 49.2726 37.424C49.2726 38.2766 48.7231 39.0023 48.0819 39.0023H43.7953C43.1541 39.0023 42.6045 38.2766 42.6045 37.424C42.6045 36.5533 43.1541 35.8458 43.7953 35.8458Z" fill="#F97F68"/>
<path d="M35.9731 25.7959H31.6864C30.3675 25.7959 29.305 27.0295 29.305 28.5533C29.305 30.0771 30.3675 31.3107 31.6864 31.3107H35.9731C37.292 31.3107 38.3545 30.0771 38.3545 28.5533C38.3545 27.0476 37.292 25.7959 35.9731 25.7959ZM35.9731 30.1497H31.6864C31.0453 30.1497 30.4957 29.424 30.4957 28.5714C30.4957 27.7188 31.0453 26.9932 31.6864 26.9932H35.9731C36.6142 26.9932 37.1638 27.7188 37.1638 28.5714C37.1638 29.424 36.6142 30.1497 35.9731 30.1497Z" fill="#F97F68"/>
<path d="M35.9731 34.5034H31.6864C30.3675 34.5034 29.305 35.737 29.305 37.2608C29.305 38.7846 30.3675 40.0181 31.6864 40.0181H35.9731C37.292 40.0181 38.3545 38.7846 38.3545 37.2608C38.3545 35.737 37.292 34.5034 35.9731 34.5034ZM35.9731 38.839H31.6864C31.0453 38.839 30.4957 38.1134 30.4957 37.2608C30.4957 36.4082 31.0453 35.6825 31.6864 35.6825H35.9731C36.6142 35.6825 37.1638 36.4082 37.1638 37.2608C37.1638 38.1134 36.6142 38.839 35.9731 38.839Z" fill="#F97F68"/>
<path d="M23.8642 25.7959H19.5776C18.2586 25.7959 17.1961 27.0295 17.1961 28.5533C17.1961 30.0771 18.2586 31.3107 19.5776 31.3107H23.8642C25.1832 31.3107 26.2457 30.0771 26.2457 28.5533C26.2457 27.0476 25.1649 25.7959 23.8642 25.7959ZM23.8642 30.1497H19.5776C18.9364 30.1497 18.3869 29.424 18.3869 28.5714C18.3869 27.7188 18.9364 26.9932 19.5776 26.9932H23.8642C24.5054 26.9932 25.055 27.7188 25.055 28.5714C25.055 29.424 24.5054 30.1497 23.8642 30.1497Z" fill="#F97F68"/>
<path d="M23.8642 34.5034H19.5776C18.2586 34.5034 17.1961 35.737 17.1961 37.2608C17.1961 38.7846 18.2586 40.0181 19.5776 40.0181H23.8642C25.1832 40.0181 26.2457 38.7846 26.2457 37.2608C26.2457 35.737 25.1649 34.5034 23.8642 34.5034ZM23.8642 38.839H19.5776C18.9364 38.839 18.3869 38.1134 18.3869 37.2608C18.3869 36.4082 18.9364 35.6825 19.5776 35.6825H23.8642C24.5054 35.6825 25.055 36.4082 25.055 37.2608C25.055 38.1134 24.5054 38.839 23.8642 38.839Z" fill="#F97F68"/>
<path d="M23.8642 43.2109H19.5776C18.2586 43.2109 17.1961 44.4444 17.1961 45.9683C17.1961 47.4921 18.2586 48.7256 19.5776 48.7256H23.8642C25.1832 48.7256 26.2457 47.4921 26.2457 45.9683C26.2457 44.4444 25.1649 43.2109 23.8642 43.2109ZM23.8642 47.5465H19.5776C18.9364 47.5465 18.3869 46.8209 18.3869 45.9683C18.3869 45.1156 18.9364 44.39 19.5776 44.39H23.8642C24.5054 44.39 25.055 45.1156 25.055 45.9683C25.055 46.8209 24.5054 47.5465 23.8642 47.5465Z" fill="#F97F68"/>
<path d="M23.8642 51.9002H19.5776C18.2586 51.9002 17.1961 53.1338 17.1961 54.6576C17.1961 56.1814 18.2586 57.415 19.5776 57.415H23.8642C25.1832 57.415 26.2457 56.1814 26.2457 54.6576C26.2457 53.1338 25.1649 51.9002 23.8642 51.9002ZM23.8642 56.254H19.5776C18.9364 56.254 18.3869 55.5283 18.3869 54.6757C18.3869 53.8231 18.9364 53.0975 19.5776 53.0975H23.8642C24.5054 53.0975 25.055 53.8231 25.055 54.6757C25.055 55.5283 24.5054 56.254 23.8642 56.254Z" fill="#F97F68"/>
<path d="M35.68 43.2109H31.3933C30.0744 43.2109 29.0119 44.4444 29.0119 45.9683C29.0119 47.4921 30.0744 48.7256 31.3933 48.7256H35.68C36.9989 48.7256 38.0614 47.4921 38.0614 45.9683C38.0614 44.4444 36.9989 43.2109 35.68 43.2109ZM35.68 47.5465H31.3933C30.7522 47.5465 30.2026 46.8209 30.2026 45.9683C30.2026 45.1156 30.7522 44.39 31.3933 44.39H35.68C36.3211 44.39 36.8707 45.1156 36.8707 45.9683C36.8707 46.8209 36.3211 47.5465 35.68 47.5465Z" fill="#F97F68"/>
<path d="M35.68 51.9002H31.3933C30.0744 51.9002 29.0119 53.1338 29.0119 54.6576C29.0119 56.1814 30.0744 57.415 31.3933 57.415H35.68C36.9989 57.415 38.0614 56.1814 38.0614 54.6576C38.0614 53.1338 36.9989 51.9002 35.68 51.9002ZM35.68 56.254H31.3933C30.7522 56.254 30.2026 55.5283 30.2026 54.6757C30.2026 53.8231 30.7522 53.0975 31.3933 53.0975H35.68C36.3211 53.0975 36.8707 53.8231 36.8707 54.6757C36.8707 55.5283 36.3211 56.254 35.68 56.254Z" fill="#F97F68"/>
</svg>
